<svg xmlns="http://www.w3.org/2000/svg" width="1336.616" height="1100.473" viewBox="0 0 1336.616 1100.473"><g transform="translate(1470.03 -580.32) rotate(90)" opacity="0.5"><text transform="matrix(-0.407, 0.914, -0.914, -0.407, 626.136, 395.85)" fill="red" font-size="111" font-family="Interstate-Bold, Interstate" font-weight="700"><tspan x="0" y="0">{</tspan></text><text transform="translate(1628.793 723.553)" fill="#fff200" font-size="111" font-family="Interstate-Bold, Interstate" font-weight="700"><tspan x="0" y="0">{</tspan></text><text transform="translate(776.466 1381.415) rotate(-90)" fill="blue" font-size="114" font-family="Interstate-Bold, Interstate" font-weight="700"><tspan x="0" y="0">&gt;</tspan></text><text transform="translate(1266.313 261.415)" fill="lime" font-size="114" font-family="Interstate-Bold, Interstate" font-weight="700"><tspan x="0" y="0">&lt;</tspan></text><text transform="matrix(0.719, -0.695, 0.695, 0.719, 1227.26, 1403.121)" fill="lime" font-size="114" font-family="Interstate-Bold, Interstate" font-weight="700"><tspan x="0" y="0">&lt;</tspan></text><text transform="translate(1560.793 240.415)" fill="#fff200" font-size="111" font-family="Interstate-Bold, Interstate" font-weight="700"><tspan x="0" y="0">}</tspan></text><text transform="matrix(0.788, 0.616, -0.616, 0.788, 962.705, 1416.74)" fill="#fff200" font-size="111" font-family="Interstate-Bold, Interstate" font-weight="700"><tspan x="0" y="0">}</tspan></text><text transform="translate(925.165 245.079) rotate(30)" fill="red" font-size="111" font-family="Interstate-Bold, Interstate" font-weight="700"><tspan x="0" y="0">}</tspan></text><text transform="translate(875.097 723.789)" fill="blue" font-size="111" font-family="Interstate-Bold, Interstate" font-weight="700"><tspan x="0" y="0">}</tspan></text><text transform="translate(1162.953 462.698) rotate(25)" fill="red" font-size="114" font-family="Interstate-Bold, Interstate" font-weight="700"><tspan x="0" y="0">(</tspan></text><text transform="translate(1449.79 1401.98) rotate(65)" fill="red" font-size="114" font-family="Interstate-Bold, Interstate" font-weight="700"><tspan x="0" y="0">(</tspan></text><text transform="matrix(0.951, -0.309, 0.309, 0.951, 897.795, 523.897)" fill="lime" font-size="114" font-family="Interstate-Bold, Interstate" font-weight="700"><tspan x="0" y="0">(</tspan></text><text transform="translate(1417.069 473.415) rotate(90)" fill="blue" font-size="114" font-family="Interstate-Bold, Interstate" font-weight="700"><tspan x="0" y="0">)</tspan></text><text transform="translate(1260.813 726.789)" fill="lime" font-size="115" font-family="Interstate-Bold, Interstate" font-weight="700"><tspan x="0" y="0">;</tspan></text><text transform="matrix(0.848, -0.53, 0.53, 0.848, 677.907, 268.698)" fill="#fff200" font-size="114" font-family="Interstate-Bold, Interstate" font-weight="700"><tspan x="0" y="0">&lt;</tspan></text></g></svg>