<svg xmlns="http://www.w3.org/2000/svg" width="871.149" height="1004.956" viewBox="0 0 871.149 1004.956">
  <g id="middle_graphics2" data-name="middle graphics2" transform="translate(1439.95 -674.466) rotate(90)" opacity="0.5">
    <text id="_" data-name="{" transform="matrix(0.407, -0.914, 0.914, 0.407, 1583.463, 693.934)" fill="#fff200" font-size="111" font-family="Interstate-Bold, Interstate" font-weight="700"><tspan x="0" y="0">{</tspan></text>
    <text id="_2" data-name="&gt;" transform="translate(783.466 1410.053) rotate(-90)" fill="blue" font-size="114" font-family="Interstate-Bold, Interstate" font-weight="700"><tspan x="0" y="0">&gt;</tspan></text>
    <text id="_3" data-name="&lt;" transform="matrix(0.719, -0.695, 0.695, 0.719, 1623.26, 1419.039)" fill="lime" font-size="114" font-family="Interstate-Bold, Interstate" font-weight="700"><tspan x="0" y="0">&lt;</tspan></text>
    <text id="_4" data-name="}" transform="matrix(0.391, 0.921, -0.921, 0.391, 1026.503, 1363.989)" fill="#fff200" font-size="111" font-family="Interstate-Bold, Interstate" font-weight="700"><tspan x="0" y="0">}</tspan></text>
    <text id="_5" data-name="}" transform="translate(1131.731 674.301) rotate(-79)" fill="blue" font-size="111" font-family="Interstate-Bold, Interstate" font-weight="700"><tspan x="0" y="0">}</tspan></text>
    <text id="_6" data-name="(" transform="matrix(0.829, -0.559, 0.559, 0.829, 1319.795, 1417.566)" fill="red" font-size="114" font-family="Interstate-Bold, Interstate" font-weight="700"><tspan x="0" y="0">(</tspan></text>
    <text id="_7" data-name="(" transform="matrix(0.829, -0.559, 0.559, 0.829, 789.795, 687.371)" fill="red" font-size="114" font-family="Interstate-Bold, Interstate" font-weight="700"><tspan x="0" y="0">(</tspan></text>
    <text id="_8" data-name=";" transform="matrix(0.695, -0.719, 0.719, 0.695, 1328.037, 668.233)" fill="lime" font-size="115" font-family="Interstate-Bold, Interstate" font-weight="700"><tspan x="0" y="0">;</tspan></text>
  </g>
</svg>
