<svg xmlns="http://www.w3.org/2000/svg" viewBox="0 0 522.08 465.25"><defs><style>.cls-1{fill:#00a19a;}.cls-1,.cls-2{stroke:#1d1d1b;stroke-miterlimit:10;stroke-width:10px;}.cls-2{fill:#f6f6f6;}.cls-3{fill:#3c3c3b;}</style></defs><g id="Laag_2" data-name="Laag 2"><g id="Laag_1-2" data-name="Laag 1"><polyline class="cls-1" points="25.8 5.62 112.67 39.96 127.82 14.71 292.61 48.04 391.45 5.62 502.56 73.61 469.23 191.76 516.7 322.07 482.36 401.89 497.51 459.14 392.46 442.98 307.94 459.14 215.96 438.94 68.22 459.14 35.9 394.5 61.15 337.4 5.6 253.08 55.09 125.81 25.8 5.62"/><rect class="cls-2" x="105.48" y="73.61" width="328.28" height="328.28"/><rect class="cls-3" x="254.28" y="322.07" width="15.33" height="15.33"/><rect class="cls-3" x="315.61" y="230.09" width="15.33" height="15.33"/><rect class="cls-3" x="315.61" y="245.42" width="15.33" height="15.33"/><rect class="cls-3" x="284.95" y="230.09" width="15.33" height="15.33"/><rect class="cls-3" x="284.95" y="245.42" width="15.33" height="15.33"/><rect class="cls-3" x="223.62" y="276.08" width="15.33" height="15.33"/><rect class="cls-3" x="300.28" y="260.75" width="15.33" height="15.33"/><rect class="cls-3" x="208.29" y="260.75" width="15.33" height="15.33"/><rect class="cls-3" x="208.29" y="245.42" width="15.33" height="15.33"/><rect class="cls-3" x="192.96" y="245.42" width="15.33" height="15.33"/><rect class="cls-3" x="177.63" y="245.42" width="15.33" height="15.33"/><rect class="cls-3" x="162.3" y="230.09" width="15.33" height="15.33"/><rect class="cls-3" x="208.29" y="214.75" width="15.33" height="15.33"/><rect class="cls-3" x="192.96" y="214.75" width="15.33" height="15.33"/><rect class="cls-3" x="177.63" y="214.75" width="15.33" height="15.33"/><rect class="cls-3" x="162.3" y="199.42" width="15.33" height="15.33"/><rect class="cls-3" x="177.63" y="184.09" width="15.33" height="15.33"/><rect class="cls-3" x="192.96" y="184.09" width="15.33" height="15.33"/><rect class="cls-3" x="208.29" y="184.09" width="15.33" height="15.33"/><rect class="cls-3" x="223.62" y="168.76" width="15.33" height="15.33"/><rect class="cls-3" x="254.28" y="168.76" width="15.33" height="15.33"/><rect class="cls-3" x="238.95" y="153.43" width="15.33" height="15.33"/><rect class="cls-3" x="300.28" y="168.76" width="15.33" height="15.33"/><rect class="cls-3" x="254.28" y="138.1" width="15.33" height="15.33"/><rect class="cls-3" x="269.62" y="138.1" width="15.33" height="15.33"/><rect class="cls-3" x="284.95" y="138.1" width="15.33" height="15.33"/><rect class="cls-3" x="300.28" y="138.1" width="15.33" height="15.33"/><rect class="cls-3" x="315.61" y="153.43" width="15.33" height="15.33"/><rect class="cls-3" x="330.94" y="168.76" width="15.33" height="15.33"/><rect class="cls-3" x="346.27" y="184.09" width="15.33" height="15.33"/><rect class="cls-3" x="346.27" y="199.42" width="15.33" height="15.33"/><rect class="cls-3" x="346.27" y="214.75" width="15.33" height="15.33"/><rect class="cls-3" x="361.6" y="230.09" width="15.33" height="15.33"/><rect class="cls-3" x="361.6" y="245.42" width="15.33" height="15.33"/><rect class="cls-3" x="361.6" y="260.75" width="15.33" height="15.33"/><rect class="cls-3" x="346.27" y="276.08" width="15.33" height="15.33"/><rect class="cls-3" x="330.94" y="291.41" width="15.33" height="15.33"/><rect class="cls-3" x="330.94" y="306.74" width="15.33" height="15.33"/><rect class="cls-3" x="315.61" y="322.07" width="15.33" height="15.33"/><rect class="cls-3" x="300.28" y="306.74" width="15.33" height="15.33"/><rect class="cls-3" x="300.28" y="291.41" width="15.33" height="15.33"/><rect class="cls-3" x="284.95" y="291.41" width="15.33" height="15.33"/><rect class="cls-3" x="269.62" y="291.41" width="15.33" height="15.33"/><rect class="cls-3" x="269.62" y="306.74" width="15.33" height="15.33"/><rect class="cls-3" x="238.95" y="291.41" width="15.33" height="15.33"/><rect class="cls-3" x="238.95" y="306.74" width="15.33" height="15.33"/></g></g></svg>