<svg xmlns="http://www.w3.org/2000/svg" xmlns:xlink="http://www.w3.org/1999/xlink" width="826.659" height="917.15" viewBox="0 0 826.659 917.15">
  <defs>
    <filter id="Path_87" x="119.661" y="321.028" width="121.525" height="159.652" filterUnits="userSpaceOnUse">
      <feOffset input="SourceAlpha"/>
      <feGaussianBlur stdDeviation="5.5" result="blur"/>
      <feFlood/>
      <feComposite operator="in" in2="blur"/>
      <feComposite in="SourceGraphic"/>
    </filter>
    <filter id="Path_88" x="228.453" y="349.345" width="110.234" height="131.369" filterUnits="userSpaceOnUse">
      <feOffset input="SourceAlpha"/>
      <feGaussianBlur stdDeviation="5.5" result="blur-2"/>
      <feFlood/>
      <feComposite operator="in" in2="blur-2"/>
      <feComposite in="SourceGraphic"/>
    </filter>
    <filter id="Path_89" x="316.967" y="351.776" width="119.148" height="126.925" filterUnits="userSpaceOnUse">
      <feOffset input="SourceAlpha"/>
      <feGaussianBlur stdDeviation="5.5" result="blur-3"/>
      <feFlood/>
      <feComposite operator="in" in2="blur-3"/>
      <feComposite in="SourceGraphic"/>
    </filter>
    <filter id="Path_90" x="408.798" y="349.345" width="110.234" height="131.369" filterUnits="userSpaceOnUse">
      <feOffset input="SourceAlpha"/>
      <feGaussianBlur stdDeviation="5.5" result="blur-4"/>
      <feFlood/>
      <feComposite operator="in" in2="blur-4"/>
      <feComposite in="SourceGraphic"/>
    </filter>
    <filter id="Path_91" x="501.854" y="349.227" width="105.279" height="131.386" filterUnits="userSpaceOnUse">
      <feOffset input="SourceAlpha"/>
      <feGaussianBlur stdDeviation="5.5" result="blur-5"/>
      <feFlood/>
      <feComposite operator="in" in2="blur-5"/>
      <feComposite in="SourceGraphic"/>
    </filter>
    <filter id="Path_92" x="581.412" y="351.776" width="121.591" height="159.425" filterUnits="userSpaceOnUse">
      <feOffset input="SourceAlpha"/>
      <feGaussianBlur stdDeviation="5.5" result="blur-6"/>
      <feFlood/>
      <feComposite operator="in" in2="blur-6"/>
      <feComposite in="SourceGraphic"/>
    </filter>
    <filter id="Path_93" x="665.652" y="418.688" width="62.721" height="62.721" filterUnits="userSpaceOnUse">
      <feOffset input="SourceAlpha"/>
      <feGaussianBlur stdDeviation="5.5" result="blur-7"/>
      <feFlood/>
      <feComposite operator="in" in2="blur-7"/>
      <feComposite in="SourceGraphic"/>
    </filter>
  </defs>
  <g id="titel" transform="translate(139.238 338.528)">
    <g id="top_graphics" data-name="top graphics" transform="translate(-396.232 -364.378)" opacity="0.5">
      <text id="_" data-name="{" transform="matrix(0.788, 0.616, -0.616, 0.788, 825.017, 308.043)" fill="red" font-size="111" font-family="Interstate-Bold, Interstate" font-weight="700"><tspan x="0" y="0">{</tspan></text>
      <text id="_2" data-name="{" transform="matrix(-0.788, -0.616, 0.616, -0.788, 492.276, 621.66)" fill="red" font-size="111" font-family="Interstate-Bold, Interstate" font-weight="700"><tspan x="0" y="0">{</tspan></text>
      <text id="_3" data-name="{" transform="matrix(0.839, 0.545, -0.545, 0.839, 868.822, 173.305)" fill="#fff200" font-size="111" font-family="Interstate-Bold, Interstate" font-weight="700"><tspan x="0" y="0">{</tspan></text>
      <text id="_4" data-name="{" transform="matrix(-0.839, -0.545, 0.545, -0.839, 503.552, 756.398)" fill="#fff200" font-size="111" font-family="Interstate-Bold, Interstate" font-weight="700"><tspan x="0" y="0">{</tspan></text>
      <text id="_5" data-name="&gt;" transform="translate(644.642 323.877)" fill="blue" font-size="114" font-family="Interstate-Bold, Interstate" font-weight="700"><tspan x="0" y="0">&gt;</tspan></text>
      <text id="_6" data-name="&gt;" transform="translate(708.5 627.85) rotate(180)" fill="blue" font-size="114" font-family="Interstate-Bold, Interstate" font-weight="700"><tspan x="0" y="0">&gt;</tspan></text>
      <text id="_7" data-name="&lt;" transform="translate(760.62 269.865) rotate(-11)" fill="lime" font-size="113" font-family="Interstate-Bold, Interstate" font-weight="700"><tspan x="0" y="0">&lt;</tspan></text>
      <text id="_8" data-name="&lt;" transform="translate(591.469 639.302) rotate(169)" fill="lime" font-size="113" font-family="Interstate-Bold, Interstate" font-weight="700"><tspan x="0" y="0">&lt;</tspan></text>
      <text id="_9" data-name="}" transform="matrix(0.899, -0.438, 0.438, 0.899, 533.317, 299.624)" fill="#fff200" font-size="111" font-family="Interstate-Bold, Interstate" font-weight="700"><tspan x="0" y="0">}</tspan></text>
      <text id="_10" data-name="}" transform="matrix(-0.899, 0.438, -0.438, -0.899, 822.832, 638.084)" fill="#fff200" font-size="111" font-family="Interstate-Bold, Interstate" font-weight="700"><tspan x="0" y="0">}</tspan></text>
      <text id="_11" data-name="}" transform="translate(392.291 196.927) rotate(-7)" fill="red" font-size="111" font-family="Interstate-Bold, Interstate" font-weight="700"><tspan x="0" y="0">}</tspan></text>
      <text id="_12" data-name="}" transform="translate(938.878 750.922) rotate(173)" fill="red" font-size="111" font-family="Interstate-Bold, Interstate" font-weight="700"><tspan x="0" y="0">}</tspan></text>
      <text id="_13" data-name="}" transform="translate(968.541 268.315) rotate(38)" fill="blue" font-size="111" font-family="Interstate-Bold, Interstate" font-weight="700"><tspan x="0" y="0">}</tspan></text>
      <text id="_14" data-name="}" transform="translate(363.846 732.849) rotate(-142)" fill="blue" font-size="111" font-family="Interstate-Bold, Interstate" font-weight="700"><tspan x="0" y="0">}</tspan></text>
      <text id="_15" data-name="(" transform="translate(662.361 170.679) rotate(4)" fill="red" font-size="114" font-family="Interstate-Bold, Interstate" font-weight="700"><tspan x="0" y="0">(</tspan></text>
      <text id="_16" data-name="(" transform="matrix(-0.914, -0.407, 0.407, -0.914, 659.16, 789.056)" fill="red" font-size="114" font-family="Interstate-Bold, Interstate" font-weight="700"><tspan x="0" y="0">(</tspan></text>
      <text id="_17" data-name="(" transform="translate(313.921 177.957) rotate(-31)" fill="lime" font-size="114" font-family="Interstate-Bold, Interstate" font-weight="700"><tspan x="0" y="0">(</tspan></text>
      <text id="_18" data-name="(" transform="translate(1020.542 769.396) rotate(149)" fill="lime" font-size="114" font-family="Interstate-Bold, Interstate" font-weight="700"><tspan x="0" y="0">(</tspan></text>
      <text id="_19" data-name=")" transform="translate(436.779 326.017) rotate(-39)" fill="blue" font-size="114" font-family="Interstate-Bold, Interstate" font-weight="700"><tspan x="0" y="0">)</tspan></text>
      <text id="_20" data-name=")" transform="translate(955.01 633.781) rotate(141)" fill="blue" font-size="114" font-family="Interstate-Bold, Interstate" font-weight="700"><tspan x="0" y="0">)</tspan></text>
      <text id="_21" data-name=";" transform="translate(558.799 172.502) rotate(-48)" fill="lime" font-size="115" font-family="Interstate-Bold, Interstate" font-weight="700"><tspan x="0" y="0">;</tspan></text>
      <text id="_22" data-name=";" transform="translate(772.37 775.348) rotate(132)" fill="lime" font-size="115" font-family="Interstate-Bold, Interstate" font-weight="700"><tspan x="0" y="0">;</tspan></text>
      <text id="_23" data-name="&lt;" transform="translate(979.59 116.215) rotate(34)" fill="#fff200" font-size="114" font-family="Interstate-Bold, Interstate" font-weight="700"><tspan x="0" y="0">&lt;</tspan></text>
      <text id="_24" data-name="&lt;" transform="translate(397.769 852.635) rotate(-146)" fill="#fff200" font-size="114" font-family="Interstate-Bold, Interstate" font-weight="700"><tspan x="0" y="0">&lt;</tspan></text>
    </g>
    <g id="logo" transform="translate(-1.901)">
      <path id="Path_595" data-name="Path 595" d="M25.594,37.7a10.965,10.965,0,0,1-3.731,3.579,14.467,14.467,0,0,1-7.234,1.9A13.554,13.554,0,0,1,4.35,38.615,17.589,17.589,0,0,1,.314,27.27,14.772,14.772,0,0,1,14.629,11.432a13.249,13.249,0,0,1,10.965,5.482l-1.9,1.523a17.36,17.36,0,0,0-2.665-2.665,11.422,11.422,0,0,0-6.092-1.827A12.183,12.183,0,0,0,3.055,27.422a12.259,12.259,0,0,0,11.726,13.4,10.66,10.66,0,0,0,8.909-4.8Z" transform="translate(220.586 155.224)" fill="#1d1d1b"/>
      <path id="Path_596" data-name="Path 596" d="M21.911,16.051a10.889,10.889,0,0,1,2.36,7.614A10.508,10.508,0,0,1,13.84,34.478a10.66,10.66,0,0,1-7.614-3.655,11.346,11.346,0,0,1-2.208-7.614,10.127,10.127,0,0,1,3.046-7.614,10.584,10.584,0,0,1,7.614-2.817,10.127,10.127,0,0,1,7.234,3.274ZM6,23.666a7.614,7.614,0,0,0,7.614,8.68,8,8,0,0,0,7.614-8.68,8.6,8.6,0,0,0-1.9-6.929,8.452,8.452,0,0,0-5.33-2.208,7.614,7.614,0,0,0-8,8.757Z" transform="translate(245.132 164.082)" fill="#1d1d1b"/>
      <path id="Path_597" data-name="Path 597" d="M24.5,11.53h2.284V41.988H24.5V37.952a8.909,8.909,0,0,1-7.614,4.416A9.823,9.823,0,0,1,7.144,31.556a9.975,9.975,0,0,1,9.518-10.965,10.279,10.279,0,0,1,4.493,1.066,8.376,8.376,0,0,1,3.35,2.893ZM9.276,31.556a7.614,7.614,0,0,0,7.614,8.6A8,8,0,0,0,24.5,31.4a7.588,7.588,0,1,0-15,.152Z" transform="translate(265.687 155.887)" fill="#1d1d1b"/>
      <path id="Path_598" data-name="Path 598" d="M13.978,13.521A1.751,1.751,0,0,1,12.227,15.2a1.714,1.714,0,0,1,0-3.427,1.751,1.751,0,0,1,1.751,1.751ZM13.369,40.4H11.085V19.384h2.284Z" transform="translate(288.549 157.474)" fill="#1d1d1b"/>
      <path id="Path_599" data-name="Path 599" d="M14.012,13.1v3.122a8.071,8.071,0,0,1,6.548-3.5A6.7,6.7,0,0,1,25.205,14.4a5.939,5.939,0,0,1,1.751,5.1v14.62H24.672V20.49a6.7,6.7,0,0,0-.838-4.188,4.34,4.34,0,0,0-3.426-1.447,6.548,6.548,0,0,0-4.569,1.9,5.711,5.711,0,0,0-1.675,4.416V34.119H11.88V13.1Z" transform="translate(297.347 163.755)" fill="#1d1d1b"/>
      <path id="Path_600" data-name="Path 600" d="M32.049,13.307h2.284V35.313a8.985,8.985,0,0,1-9.975,9.67A10.889,10.889,0,0,1,15.6,41.4l1.751-1.751a7.614,7.614,0,0,0,1.98,1.827,10.28,10.28,0,0,0,5.1,1.294,8.452,8.452,0,0,0,6.015-2.208,7.614,7.614,0,0,0,1.6-5.254V29.678a10.356,10.356,0,0,1-2.665,3.274,9.137,9.137,0,0,1-5.254,1.675,10.051,10.051,0,0,1-9.594-10.813,11.955,11.955,0,0,1,3.274-8.757,8.757,8.757,0,0,1,6.4-2.36,8.833,8.833,0,0,1,7.614,4.493ZM16.82,23.663A8,8,0,0,0,24.434,32.5,8.147,8.147,0,0,0,30.3,29.678a10.432,10.432,0,0,0,1.675-6.015A8.3,8.3,0,0,0,30.3,17.724a7.614,7.614,0,0,0-13.4,5.939Z" transform="translate(314.718 163.551)" fill="#1d1d1b"/>
      <path id="Path_601" data-name="Path 601" d="M22.074,13.121v3.046A6.777,6.777,0,0,1,28.09,12.74a6.168,6.168,0,0,1,3.96,1.294A5.178,5.178,0,0,1,33.724,16.7a7.005,7.005,0,0,1,6.853-3.96A6.32,6.32,0,0,1,46.06,15.1c.838,1.294.99,2.284.99,5.711V34.137H44.765V21.5c0-3.5,0-3.579-.609-4.645a4.569,4.569,0,0,0-4.188-1.98c-3.5,0-5.406,2.36-5.406,6.625v12.64H32.278V21.5a8,8,0,0,0-1.066-5.178,4.34,4.34,0,0,0-3.579-1.447c-3.426,0-5.559,2.589-5.559,6.625v12.64H19.79V13.121Z" transform="translate(349.668 163.738)" fill="#1d1d1b"/>
      <path id="Path_602" data-name="Path 602" d="M41.484,13.1h2.284V34.117H41.484V29.4a8.833,8.833,0,0,1-7.614,5.026,9.975,9.975,0,0,1-9.746-10.813,9.9,9.9,0,0,1,9.67-10.889,9.061,9.061,0,0,1,7.614,4.264ZM28.159,17.517a10.584,10.584,0,0,0-1.9,6.168,7.614,7.614,0,0,0,7.614,8.6,8.528,8.528,0,0,0,7.614-9.061,7.614,7.614,0,0,0-7.614-8.376,6.472,6.472,0,0,0-5.711,2.665Z" transform="translate(378 163.758)" fill="#1d1d1b"/>
      <path id="Path_603" data-name="Path 603" d="M44.692,11.53h2.284V41.988H44.692V37.952a8.909,8.909,0,0,1-7.614,4.416,9.823,9.823,0,0,1-9.67-10.736,10.051,10.051,0,0,1,9.518-10.965,10.28,10.28,0,0,1,4.493,1.066,8.376,8.376,0,0,1,3.35,2.893ZM29.463,31.556a7.614,7.614,0,0,0,7.614,8.6A8,8,0,0,0,44.692,31.4a7.588,7.588,0,1,0-15,.152Z" transform="translate(399.768 155.887)" fill="#1d1d1b"/>
      <path id="Path_604" data-name="Path 604" d="M33.237,24.981A7.916,7.916,0,0,0,41,32.748a8.224,8.224,0,0,0,7.081-4.112l1.9.99a10.279,10.279,0,0,1-19.264-5.482,10.356,10.356,0,1,1,20.635-.609,11.341,11.341,0,0,1,0,1.447Zm15.229-2.056a7.615,7.615,0,0,0-1.218-4.036,8.071,8.071,0,0,0-6.4-3.579A7.614,7.614,0,0,0,34.38,18.89a8.376,8.376,0,0,0-1.142,4.036Z" transform="translate(421.578 163.299)" fill="#1d1d1b"/>
      <path id="Path_605" data-name="Path 605" d="M38,24.982a7.914,7.914,0,0,0,7.843,7.767,8.147,8.147,0,0,0,7.005-4.112l1.9.99a9.823,9.823,0,0,1-8.909,5.254A10.051,10.051,0,0,1,35.565,24.144,10.356,10.356,0,1,1,56.2,23.535v1.447Zm15.686-2.056a7.615,7.615,0,0,0-1.218-4.036,8.224,8.224,0,0,0-6.625-3.5A7.614,7.614,0,0,0,39.3,18.966a8.376,8.376,0,0,0-1.218,3.959Z" transform="translate(453.592 163.299)" fill="#1d1d1b"/>
      <path id="Path_606" data-name="Path 606" d="M56.117,13.1H58.4V34.117H56.117V29.4A8.833,8.833,0,0,1,48.5,34.421a9.975,9.975,0,0,1-9.746-10.813A9.975,9.975,0,0,1,48.5,12.72a8.985,8.985,0,0,1,7.614,4.264ZM42.792,17.517a11.117,11.117,0,0,0-1.827,6.168,7.614,7.614,0,0,0,7.614,8.6,8.528,8.528,0,0,0,7.614-9.061,7.614,7.614,0,0,0-7.614-8.376,6.472,6.472,0,0,0-6.168,2.665Z" transform="translate(474.842 163.758)" fill="#1d1d1b"/>
      <path id="Path_607" data-name="Path 607" d="M54.149,18.633c0-2.36-1.751-3.807-4.721-3.807s-4.645,1.447-4.645,3.579,1.142,3.046,5.026,3.96A10.2,10.2,0,0,1,55.063,24.8a5.787,5.787,0,0,1,1.6,3.96c0,3.426-2.817,5.711-7.158,5.711A6.548,6.548,0,0,1,41.89,28.3h2.36c0,2.589,2.132,4.112,5.254,4.112s4.721-1.447,4.721-3.655-1.371-3.2-5.254-4.112a10.432,10.432,0,0,1-4.721-2.132,5.406,5.406,0,0,1-1.827-4.036c0-3.35,2.893-5.711,7.081-5.711a6.168,6.168,0,0,1,7.005,5.863Z" transform="translate(495.847 163.708)" fill="#1d1d1b"/>
      <path id="Path_608" data-name="Path 608" d="M59.974,12.77h2.589L49.619,44.141H47.106l4.569-11.193L44.06,12.77H46.5l6.472,16.98Z" transform="translate(510.2 164.088)" fill="#1d1d1b"/>
      <path id="Path_609" data-name="Path 609" d="M50.331,17.04A1.827,1.827,0,0,1,48.5,18.867a1.9,1.9,0,1,1,0-3.807,1.828,1.828,0,0,1,1.827,1.98Z" transform="translate(527.001 179.235)" fill="#1d1d1b"/>
      <g transform="matrix(1, 0, 0, 1, -137.34, -338.53)" filter="url(#Path_87)">
        <path id="Path_87-2" data-name="Path 87" d="M86.349,74.241c0,32.978-14.02,50.344-43.652,50.344A41.422,41.422,0,0,1,0,92.084l17.843-5.257a25.331,25.331,0,0,0,25.49,19.436c17.684,0,24.694-10.037,24.694-33.3V0H86.349Z" transform="translate(137.34 338.53)" fill="rgba(0,0,0,0)" stroke="#000" stroke-width="2"/>
      </g>
      <g transform="matrix(1, 0, 0, 1, -137.34, -338.53)" filter="url(#Path_88)">
        <path id="Path_88-2" data-name="Path 88" d="M81.728,96.131H64.044V87.05A36.8,36.8,0,0,1,38.712,98.043,29.633,29.633,0,0,1,6.849,67.136c0-20.552,15.932-29.951,36.643-29.951a51.937,51.937,0,0,1,20.552,3.5V34c0-10.037-6.213-15.932-17.365-15.932A46.839,46.839,0,0,0,22.622,23.8l-7.01-13.7A57.354,57.354,0,0,1,47.475,1.816c20.552,0,34.571,10.037,34.571,30.907ZM64.044,70V56.939a44.449,44.449,0,0,0-21.03-3.824c-11.63,0-18.959,5.257-18.959,13.7s5.735,15.932,17.684,15.932A29.314,29.314,0,0,0,64.044,70Z" transform="translate(239.14 365.07)" fill="rgba(0,0,0,0)" stroke="#000" stroke-width="2"/>
      </g>
      <g transform="matrix(1, 0, 0, 1, -137.34, -338.53)" filter="url(#Path_89)">
        <path id="Path_89-2" data-name="Path 89" d="M95.722,1.93,63.859,93.855H45.378L12.4,1.93H31.2L47.131,51.8c3.027,8.922,5.576,17.525,6.851,22.623.956-5.1,3.5-13.7,6.213-22.623L76.126,1.93Z" transform="translate(322.49 367.35)" fill="rgba(0,0,0,0)" stroke="#000" stroke-width="2"/>
      </g>
      <g transform="matrix(1, 0, 0, 1, -137.34, -338.53)" filter="url(#Path_90)">
        <path id="Path_90-2" data-name="Path 90" d="M93.048,96.131H75.364V87.05A36.8,36.8,0,0,1,50.032,98.043,29.633,29.633,0,0,1,18.169,67.136c0-20.552,15.932-29.951,36.643-29.951a51.937,51.937,0,0,1,20.552,3.5V34c0-10.037-6.213-15.932-17.365-15.932A46.839,46.839,0,0,0,33.942,23.8l-7.01-13.7A57.354,57.354,0,0,1,58.795,1.816c20.552,0,34.571,10.037,34.571,30.907ZM75.364,70V56.939a44.449,44.449,0,0,0-21.03-3.824c-11.63,0-18.959,5.257-18.959,13.7s5.735,15.932,17.684,15.932A29.473,29.473,0,0,0,75.364,70Z" transform="translate(408.17 365.07)" fill="rgba(0,0,0,0)" stroke="#000" stroke-width="2"/>
      </g>
      <g transform="matrix(1, 0, 0, 1, -137.34, -338.53)" filter="url(#Path_91)">
        <path id="Path_91-2" data-name="Path 91" d="M93.939,71.072c0,20.233-15.932,27.084-34.571,27.084A63.726,63.726,0,0,1,24,86.366l8.284-13.542a48.591,48.591,0,0,0,26.765,9.081c11.471,0,16.887-3.664,16.887-10.2S67.812,61.354,54.589,55.778C34.674,48.131,27.5,41.44,27.5,26.942S40.569,1.77,59.368,1.77a55.283,55.283,0,0,1,31.863,10.2l-7.806,13.86a40.466,40.466,0,0,0-23.9-7.806c-8.762,0-12.586,3.5-12.586,8.284s3.186,7.966,16.887,13.382C83.425,48.131,93.939,53.229,93.939,71.072Z" transform="translate(495.69 364.96)" fill="rgba(0,0,0,0)" stroke="#000" stroke-width="2"/>
      </g>
      <g transform="matrix(1, 0, 0, 1, -137.34, -338.53)" filter="url(#Path_92)">
        <path id="Path_92-2" data-name="Path 92" d="M114.712,1.93,68.351,126.355H49.233L62.616,92.1,29,1.93H48.755L63.731,46.857c2.708,8.125,7.01,21.826,8.125,26.924,1.593-5.576,5.417-18.64,8.284-26.606L96.072,1.93Z" transform="translate(570.35 367.35)" fill="rgba(0,0,0,0)" stroke="#000" stroke-width="2"/>
      </g>
      <g transform="matrix(1, 0, 0, 1, -137.34, -338.53)" filter="url(#Path_93)">
        <path id="Path_93-2" data-name="Path 93" d="M61.981,19.99A13.86,13.86,0,1,1,48.12,6.13a13.86,13.86,0,0,1,13.86,13.86Z" transform="translate(648.89 430.06)" fill="rgba(0,0,0,0)" stroke="#000" stroke-width="2"/>
      </g>
    </g>
  </g>
</svg>
