<svg xmlns="http://www.w3.org/2000/svg" viewBox="0 0 35.96 9.74"><defs><style>.cls-1{fill:#1d1d1b;}</style></defs><g id="Laag_2" data-name="Laag 2"><g id="Laag_1-2" data-name="Laag 1"><path class="cls-1" d="M5.42,4.66c0,2.07-.88,3.16-2.74,3.16A2.6,2.6,0,0,1,0,5.78l1.12-.33a1.59,1.59,0,0,0,1.6,1.22c1.11,0,1.55-.63,1.55-2.09V0H5.42Z"/><path class="cls-1" d="M11.52,7.7H10.41V7.13a2.31,2.31,0,0,1-1.59.69,1.86,1.86,0,0,1-2-1.94c0-1.29,1-1.88,2.3-1.88a3.26,3.26,0,0,1,1.29.22V3.8c0-.63-.39-1-1.09-1a2.94,2.94,0,0,0-1.51.36l-.44-.86a3.6,3.6,0,0,1,2-.52c1.29,0,2.17.63,2.17,1.94ZM10.41,6.06V5.24A2.79,2.79,0,0,0,9.09,5c-.73,0-1.19.33-1.19.86s.36,1,1.11,1A1.84,1.84,0,0,0,10.41,6.06Z"/><path class="cls-1" d="M17.63,1.93l-2,5.77H14.47L12.4,1.93h1.18l1,3.13c.19.56.35,1.1.43,1.42.06-.32.22-.86.39-1.42l1-3.13Z"/><path class="cls-1" d="M22.84,7.7H21.73V7.13a2.31,2.31,0,0,1-1.59.69,1.86,1.86,0,0,1-2-1.94c0-1.29,1-1.88,2.3-1.88a3.26,3.26,0,0,1,1.29.22V3.8c0-.63-.39-1-1.09-1a2.94,2.94,0,0,0-1.51.36l-.44-.86a3.6,3.6,0,0,1,2-.52c1.29,0,2.17.63,2.17,1.94ZM21.73,6.06V5.24A2.79,2.79,0,0,0,20.41,5c-.73,0-1.19.33-1.19.86s.36,1,1.11,1A1.85,1.85,0,0,0,21.73,6.06Z"/><path class="cls-1" d="M28.39,6.12c0,1.27-1,1.7-2.17,1.7A4,4,0,0,1,24,7.08l.52-.85a3.05,3.05,0,0,0,1.68.57c.72,0,1.06-.23,1.06-.64s-.51-.65-1.34-1c-1.25-.48-1.7-.9-1.7-1.81s.82-1.58,2-1.58a3.47,3.47,0,0,1,2,.64l-.49.87a2.54,2.54,0,0,0-1.5-.49c-.55,0-.79.22-.79.52s.2.5,1.06.84C27.73,4.68,28.39,5,28.39,6.12Z"/><path class="cls-1" d="M34.38,1.93,31.47,9.74h-1.2l.84-2.15L29,1.93h1.24l.94,2.82c.17.51.44,1.37.51,1.69.1-.35.34-1.17.52-1.67l1-2.84Z"/><path class="cls-1" d="M36,7a.87.87,0,0,1-1.74,0A.87.87,0,1,1,36,7Z"/></g></g></svg>