<svg xmlns="http://www.w3.org/2000/svg" width="1370.787" height="523.743" viewBox="0 0 1370.787 523.743"><g transform="translate(1720.228 215.478) rotate(180)" opacity="0.5"><text transform="translate(568.282 -68.741)" fill="lime" font-size="114" font-family="Interstate-Bold, Interstate" font-weight="700"><tspan x="0" y="0">&gt;</tspan></text><text transform="translate(372.584 156.999) rotate(59)" fill="red" font-size="114" font-family="Interstate-Bold, Interstate" font-weight="700"><tspan x="0" y="0">&lt;</tspan></text><text transform="translate(1659.049 -201.266)" fill="#fff200" font-size="111" font-family="Interstate-Bold, Interstate" font-weight="700"><tspan x="0" y="0">}</tspan></text><text transform="translate(1601.162 -1.741)" fill="lime" font-size="111" font-family="Interstate-Bold, Interstate" font-weight="700"><tspan x="0" y="0">}</tspan></text><text transform="translate(374.265 -240.928) rotate(51)" fill="red" font-size="111" font-family="Interstate-Bold, Interstate" font-weight="700"><tspan x="0" y="0">}</tspan></text><text transform="matrix(0.799, 0.602, -0.602, 0.799, 1475.157, 91.551)" fill="blue" font-size="111" font-family="Interstate-Bold, Interstate" font-weight="700"><tspan x="0" y="0">}</tspan></text><text transform="translate(1538.282 -132.266)" fill="red" font-size="114" font-family="Interstate-Bold, Interstate" font-weight="700"><tspan x="0" y="0">(</tspan></text><text transform="translate(720.467 41.829) rotate(-16)" fill="blue" font-size="114" font-family="Interstate-Bold, Interstate" font-weight="700"><tspan x="0" y="0">)</tspan></text><text transform="translate(1305.357 63.702) rotate(-45)" fill="blue" font-size="114" font-family="Interstate-Bold, Interstate" font-weight="700"><tspan x="0" y="0">)</tspan></text><text transform="translate(421.399 -8.138)" fill="blue" font-size="115" font-family="Interstate-Bold, Interstate" font-weight="700"><tspan x="0" y="0">;</tspan></text><text transform="translate(1654.159 126.293) rotate(19)" fill="lime" font-size="115" font-family="Interstate-Bold, Interstate" font-weight="700"><tspan x="0" y="0">;</tspan></text><text transform="matrix(0.588, -0.809, 0.809, 0.588, 1463.408, -50.698)" fill="#fff200" font-size="115" font-family="Interstate-Bold, Interstate" font-weight="700"><tspan x="0" y="0">;</tspan></text><text transform="translate(527.769 122.019) rotate(-19)" fill="#fff200" font-size="114" font-family="Interstate-Bold, Interstate" font-weight="700"><tspan x="0" y="0">&lt;</tspan></text><text transform="translate(838.21 84.595) rotate(-16)" fill="#fff200" font-size="114" font-family="Interstate-Bold, Interstate" font-weight="700"><tspan x="0" y="0">&lt;</tspan></text></g></svg>