<svg xmlns="http://www.w3.org/2000/svg" width="182" height="31.376" viewBox="0 0 182 31.376"><defs><style>.a{fill:#fff;}</style></defs><path class="a" d="M96.455,337.1l5.253,10.328,11.747,1.656-8.5,8.04,2.007,11.352-10.507-5.36-10.507,5.36,2.007-11.352-8.5-8.04L91.2,347.425Z" transform="translate(-79.455 -337.097)"/><path class="a" d="M96.455,337.1l5.253,10.328,11.747,1.656-8.5,8.04,2.007,11.352-10.507-5.36-10.507,5.36,2.007-11.352-8.5-8.04L91.2,347.425Z" transform="translate(-42.455 -337.097)"/><path class="a" d="M96.455,337.1l5.253,10.328,11.747,1.656-8.5,8.04,2.007,11.352-10.507-5.36-10.507,5.36,2.007-11.352-8.5-8.04L91.2,347.425Z" transform="translate(-5.455 -337.097)"/><path class="a" d="M96.455,337.1l5.253,10.328,11.747,1.656-8.5,8.04,2.007,11.352-10.507-5.36-10.507,5.36,2.007-11.352-8.5-8.04L91.2,347.425Z" transform="translate(31.545 -337.097)"/><path class="a" d="M96.455,337.1l5.253,10.328,11.747,1.656-8.5,8.04,2.007,11.352-10.507-5.36-10.507,5.36,2.007-11.352-8.5-8.04L91.2,347.425Z" transform="translate(68.545 -337.097)"/></svg>